<svg xmlns="http://www.w3.org/2000/svg" version="1.1" x="0px" y="0px" viewBox="0 0 100 125"
     enable-background="new 0 0 100 100" xml:space="preserve"><g><path d="M66.108,24.235c0.332-0.803,0.218-1.672,0.117-2.163c-0.617-3.042-1.73-3.695-2.393-7.983l-0.057,0.038   C62.803,8.502,58.321,4.084,52.663,3.217c-0.483-0.041-0.97,0.056-0.97,0.82c0,0.022,0,0.036-0.001,0.055v5.429   c0,0.679-0.39,1.23-1.068,1.23c-0.679,0-1.069-0.551-1.069-1.23V3.93c-0.077-0.678-0.556-0.762-1.049-0.692   c0,0-0.001-0.005-0.001-0.007c-5.981,0.954-10.635,5.876-11.181,11.984c-0.668,3.299-1.632,4.105-2.191,6.856   c-0.099,0.49-0.214,1.358,0.116,2.161c0.536,0.639,2.021,1.714,2.021,1.714c2.919,1.954,8.112,3.015,13.411,3.015   c6.13,0,10.202-1.074,13.298-2.94C65.056,25.372,65.598,24.783,66.108,24.235z"/><path d="M66.944,59.909c-1.009,0-1.999,0.085-2.965,0.24V30.808c-3.295,1.523-7.617,2.428-13.298,2.428   c-5.746,0-10.104-0.923-13.411-2.476v29.446c-1.064-0.191-2.156-0.296-3.275-0.296c-10.185,0-18.44,8.256-18.44,18.44   s8.255,18.44,18.44,18.44c5.625,0,10.659-2.521,14.042-6.494c0,0.001,0.003,0.003,0.003,0.003c0.022-0.032,0.047-0.058,0.072-0.09   c0.069-0.081,0.137-0.163,0.204-0.246c1.277-1.404,3.001-1.442,4.285-0.028c0.079,0.096,0.156,0.19,0.235,0.285   c0.021,0.027,0.043,0.05,0.063,0.079c0.066,0.091,0.13,0.157,0.19,0.213c3.379,3.847,8.331,6.278,13.854,6.278   c10.185,0,18.44-8.256,18.44-18.44S77.129,59.909,66.944,59.909z"/></g><text x="0" y="115" fill="#000000" font-size="5px" font-weight="bold" font-family="'Helvetica Neue', Helvetica, Arial-Unicode, Arial, Sans-serif">Created by Cédric Villain</text><text x="0" y="120" fill="#000000" font-size="5px" font-weight="bold" font-family="'Helvetica Neue', Helvetica, Arial-Unicode, Arial, Sans-serif">from the Noun Project</text></svg>
